<?xml version="1.0" encoding="UTF-8" standalone="no"?>
<!DOCTYPE svg PUBLIC "-//W3C//DTD SVG 1.1//EN" "http://www.w3.org/Graphics/SVG/1.1/DTD/svg11.dtd">
<svg width="100%" height="100%" viewBox="0 0 1024 414" version="1.1" xmlns="http://www.w3.org/2000/svg" xmlns:xlink="http://www.w3.org/1999/xlink" xml:space="preserve" xmlns:serif="http://www.serif.com/" style="fill-rule:evenodd;clip-rule:evenodd;stroke-linejoin:round;stroke-miterlimit:2;">
    <g transform="matrix(1,0,0,1,-22.393,-41.995)">
        <path d="M91,409C91,409 91,170.5 250,170.5L91,91L91,409Z" style="fill:rgb(1,126,213);"/>
        <path d="M91,409C91,409 91,130.75 170.5,130.75C122.002,106.501 91,91 91,91L91,409Z" style="fill:rgb(1,175,213);"/>
        <path d="M91,409L409,250C409,250 250,329.5 91,250L91,409Z" style="fill:rgb(181,61,255);"/>
        <path d="M91,409L409,250C409,250 170.5,369.25 91,329.5L91,250L91,409Z" style="fill:rgb(141,0,196);"/>
        <path d="M91,91L409,250C409,250 329.682,289.659 250,329.5C250,170.5 91,91 91,91Z" style="fill:rgb(20,232,30);"/>
        <path d="M91,91L409,250C409,250 406.747,251.126 327.065,290.967C327.065,209.033 91,91 91,91Z" style="fill:rgb(0,234,141);"/>
    </g>
    <g transform="matrix(1,0,0,1,-54.2571,174.767)">
        <g transform="matrix(1,0,0,1,54.2571,-174.767)">
            <path d="M494.751,207C494.562,207.372 494.365,207.739 494.16,208.102C491.494,212.826 487.62,216.522 482.539,219.188C477.458,221.855 471.327,223.188 464.147,223.188L447.203,223.188L447.203,253.863L427.991,253.863L427.991,207L447.203,207L447.203,207.693L461.06,207.693C463.374,207.693 465.451,207.462 467.289,207L494.751,207Z" style="fill:rgb(1,126,213);fill-rule:nonzero;"/>
        </g>
        <g transform="matrix(1,0,0,1,54.2571,-174.767)">
            <path d="M528.521,207C528.521,217.036 530.746,224.721 535.197,230.054C539.648,235.387 545.506,238.053 552.771,238.053C560.078,238.053 565.946,235.397 570.376,230.085C574.806,224.773 577.022,217.078 577.022,207L596.548,207C596.548,217.204 594.627,225.886 590.784,233.046C586.942,240.205 581.725,245.675 575.132,249.454C568.539,253.233 561.086,255.123 552.771,255.123C544.499,255.123 537.055,253.233 530.442,249.454C523.828,245.675 518.6,240.195 514.758,233.014C510.915,225.833 508.994,217.162 508.994,207L528.521,207Z" style="fill:rgb(1,126,213);fill-rule:nonzero;"/>
        </g>
        <g transform="matrix(1,0,0,1,54.2571,-174.767)">
            <path d="M630.184,207L630.184,237.927L670.685,237.927L670.685,253.863L610.972,253.863L610.972,207L630.184,207Z" style="fill:rgb(1,126,213);fill-rule:nonzero;"/>
        </g>
        <g transform="matrix(1,0,0,1,54.2571,-174.767)">
            <path d="M752.214,207L768.632,253.863L747.279,253.863L740.035,232.069L706.714,232.069L699.723,253.863L678.496,253.863L694.505,207L714.683,207C714.526,207.53 714.368,208.055 714.21,208.575L711.502,217.015L735.059,217.015L732.225,208.575C732.06,208.054 731.896,207.529 731.732,207L752.214,207Z" style="fill:rgb(1,126,213);fill-rule:nonzero;"/>
        </g>
        <g transform="matrix(1,0,0,1,54.2571,-174.767)">
            <path d="M846.127,207L846.107,207.031C843.252,211.588 839.137,215 833.762,217.267L853.729,253.863L832.439,253.863L814.55,220.354L799.433,220.354L799.433,253.863L780.222,253.863L780.222,207L846.127,207Z" style="fill:rgb(1,126,213);fill-rule:nonzero;"/>
        </g>
        <g transform="matrix(1,0,0,1,54.2571,-174.767)">
            <rect x="864.941" y="207" width="19.211" height="46.863" style="fill:rgb(1,126,213);fill-rule:nonzero;"/>
        </g>
        <g transform="matrix(1,0,0,1,54.2571,-174.767)">
            <path d="M961.283,207C964.002,208.926 966.259,211.204 968.053,213.834C970.53,217.467 971.769,221.907 971.769,227.156C971.769,235.681 968.588,242.494 962.226,247.596C955.865,252.698 946.973,255.249 935.551,255.249C924.255,255.249 915.237,252.656 908.497,247.47C901.758,242.284 898.262,234.715 898.01,224.763L916.717,224.763C917.053,229.508 918.953,233.067 922.418,235.439C925.882,237.812 930.197,238.998 935.362,238.998C940.485,238.998 944.611,237.896 947.739,235.691C950.867,233.487 952.432,230.6 952.432,227.03C952.432,223.797 951.014,221.319 948.18,219.598C945.346,217.876 941.367,216.385 936.244,215.125L925.914,212.543C920.46,211.216 915.82,209.368 911.992,207L961.283,207Z" style="fill:rgb(1,126,213);fill-rule:nonzero;"/>
        </g>
    </g>
    <g transform="matrix(1,0,0,1,-54.2571,174.767)">
        <g transform="matrix(1,0,0,1,54.2571,-174.767)">
            <path d="M427.991,206.937L427.991,160.011L464.587,160.011C471.726,160.011 477.794,161.365 482.791,164.073C487.788,166.782 491.599,170.519 494.223,175.285C496.848,180.052 498.16,185.521 498.16,191.694C498.16,197.404 497.035,202.485 494.783,206.937L467.533,206.937C470.253,206.216 472.442,204.977 474.099,203.221C476.912,200.239 478.319,196.397 478.319,191.694C478.319,186.949 476.912,183.127 474.099,180.23C471.285,177.333 466.918,175.884 460.997,175.884L447.203,175.884L447.203,206.937L427.991,206.937Z" style="fill:rgb(1,175,213);fill-rule:nonzero;"/>
        </g>
        <g transform="matrix(1,0,0,1,54.2571,-174.767)">
            <path d="M508.994,206.937C509.002,196.759 510.923,188.078 514.758,180.891C518.6,173.69 523.828,168.199 530.442,164.42C537.055,160.641 544.499,158.751 552.771,158.751C561.086,158.751 568.539,160.641 575.132,164.42C581.725,168.199 586.942,173.69 590.784,180.891C594.619,188.078 596.54,196.759 596.548,206.937L577.021,206.937C577.012,196.847 574.797,189.142 570.376,183.82C565.946,178.487 560.078,175.821 552.771,175.821C545.506,175.821 539.648,178.498 535.197,183.852C530.755,189.195 528.53,196.889 528.521,206.937L508.994,206.937Z" style="fill:rgb(1,175,213);fill-rule:nonzero;"/>
        </g>
        <g transform="matrix(1,0,0,1,54.2571,-174.767)">
            <rect x="610.972" y="160.011" width="19.211" height="46.926" style="fill:rgb(1,175,213);fill-rule:nonzero;"/>
        </g>
        <g transform="matrix(1,0,0,1,54.2571,-174.767)">
            <path d="M752.192,206.937L731.713,206.937C730.371,202.61 729.03,197.97 727.69,193.017C726.178,187.432 724.603,181.448 722.965,175.065C721.412,181.532 719.921,187.558 718.493,193.143C717.229,198.086 715.966,202.685 714.702,206.937L694.526,206.937L710.557,160.011L735.752,160.011L752.192,206.937Z" style="fill:rgb(1,175,213);fill-rule:nonzero;"/>
        </g>
        <g transform="matrix(1,0,0,1,54.2571,-174.767)">
            <path d="M780.222,206.937L780.222,160.011L816.818,160.011C827.484,160.011 835.746,162.793 841.604,168.357C847.462,173.921 850.391,181.322 850.391,190.56C850.391,196.941 848.983,202.4 846.166,206.937L780.222,206.937ZM799.433,204.795L813.291,204.795C824.796,204.795 830.549,200.05 830.549,190.56C830.549,185.815 829.132,182.183 826.298,179.663C823.463,177.144 819.106,175.884 813.228,175.884L799.433,175.884L799.433,204.795Z" style="fill:rgb(1,175,213);fill-rule:nonzero;"/>
        </g>
        <g transform="matrix(1,0,0,1,54.2571,-174.767)">
            <rect x="864.941" y="160.011" width="19.211" height="46.926" style="fill:rgb(1,175,213);fill-rule:nonzero;"/>
        </g>
        <g transform="matrix(1,0,0,1,54.2571,-174.767)">
            <path d="M911.892,206.937C910.188,205.875 908.648,204.71 907.269,203.441C902.776,199.305 900.529,193.835 900.529,187.033C900.529,181.364 902.052,176.409 905.096,172.167C908.14,167.926 912.319,164.63 917.631,162.278C922.943,159.927 929,158.751 935.803,158.751C942.731,158.751 948.778,159.937 953.943,162.31C959.108,164.682 963.14,167.979 966.037,172.199C968.935,176.419 970.425,181.28 970.509,186.781L951.928,186.781C951.592,183.001 949.986,180.083 947.109,178.025C944.233,175.968 940.401,174.939 935.614,174.939C930.701,174.939 926.911,175.957 924.244,177.994C921.578,180.031 920.245,182.624 920.245,185.773C920.245,189.258 921.746,191.862 924.748,193.583C927.751,195.305 931.247,196.649 935.236,197.615L943.739,199.693C948.988,200.911 953.733,202.664 957.975,204.953C959.111,205.566 960.184,206.227 961.193,206.937L911.892,206.937Z" style="fill:rgb(1,175,213);fill-rule:nonzero;"/>
        </g>
    </g>
</svg>
